<svg 
    xmlns="http://www.w3.org/2000/svg" 
    viewBox="0 0 200 300" 
    width="200" 
    height="300"
>
  <!-- Calculator Body -->
  <rect x="10" y="10" width="180" height="280" rx="15" ry="15" fill="#444" />
  
  <!-- Display Screen -->
  <rect x="25" y="20" width="150" height="50" rx="5" ry="5" fill="#222" />
  <text x="100" y="50" fill="#fff" font-size="14" text-anchor="middle" alignment-baseline="middle">12345</text>
  
  <!-- Buttons -->
  <rect x="25" y="90" width="40" height="40" rx="5" ry="5" fill="#f1f1f1" />
  <text x="45" y="115" fill="#000" font-size="16" text-anchor="middle" alignment-baseline="middle">7</text>
  
  <rect x="75" y="90" width="40" height="40" rx="5" ry="5" fill="#f1f1f1" />
  <text x="95" y="115" fill="#000" font-size="16" text-anchor="middle" alignment-baseline="middle">8</text>
  
  <rect x="125" y="90" width="40" height="40" rx="5" ry="5" fill="#f1f1f1" />
  <text x="145" y="115" fill="#000" font-size="16" text-anchor="middle" alignment-baseline="middle">9</text>
  
  <rect x="25" y="140" width="40" height="40" rx="5" ry="5" fill="#f1f1f1" />
  <text x="45" y="165" fill="#000" font-size="16" text-anchor="middle" alignment-baseline="middle">4</text>
  
  <rect x="75" y="140" width="40" height="40" rx="5" ry="5" fill="#f1f1f1" />
  <text x="95" y="165" fill="#000" font-size="16" text-anchor="middle" alignment-baseline="middle">5</text>
  
  <rect x="125" y="140" width="40" height="40" rx="5" ry="5" fill="#f1f1f1" />
  <text x="145" y="165" fill="#000" font-size="16" text-anchor="middle" alignment-baseline="middle">6</text>
  
  <rect x="25" y="190" width="40" height="40" rx="5" ry="5" fill="#f1f1f1" />
  <text x="45" y="215" fill="#000" font-size="16" text-anchor="middle" alignment-baseline="middle">1</text>
  
  <rect x="75" y="190" width="40" height="40" rx="5" ry="5" fill="#f1f1f1" />
  <text x="95" y="215" fill="#000" font-size="16" text-anchor="middle" alignment-baseline="middle">2</text>
  
  <rect x="125" y="190" width="40" height="40" rx="5" ry="5" fill="#f1f1f1" />
  <text x="145" y="215" fill="#000" font-size="16" text-anchor="middle" alignment-baseline="middle">3</text>
  
  <rect x="25" y="240" width="90" height="40" rx="5" ry="5" fill="#f1f1f1" />
  <text x="70" y="265" fill="#000" font-size="16" text-anchor="middle" alignment-baseline="middle">0</text>
  
  <rect x="125" y="240" width="40" height="40" rx="5" ry="5" fill="#f1f1f1" />
  <text x="145" y="265" fill="#000" font-size="16" text-anchor="middle" alignment-baseline="middle">=</text>
</svg>